<?xml version="1.0" encoding="iso-8859-1"?>
<!-- Generator: Adobe Illustrator 19.0.0, SVG Export Plug-In . SVG Version: 6.00 Build 0)  -->
<svg version="1.1" id="Capa_1" xmlns="http://www.w3.org/2000/svg" xmlns:xlink="http://www.w3.org/1999/xlink" x="0px" y="0px"
	 viewBox="0 0 417.276 417.276" style="enable-background:new 0 0 417.276 417.276;" xml:space="preserve">
<g>
	<g>
		<path d="M417.276,156.838c0.08-21.738-17.478-39.424-39.215-39.504c-21.738-0.08-39.424,17.478-39.504,39.215
			c-0.05,13.547,6.871,26.167,18.32,33.409l-59.44,26.72l-74.56-96c20.274-7.842,30.352-30.635,22.509-50.909
			c-7.842-20.274-30.635-30.352-50.909-22.509s-30.352,30.635-22.509,50.909c3.999,10.338,12.171,18.51,22.509,22.509l-74.64,96
			l-59.52-26.56c18.242-11.659,23.578-35.899,11.919-54.141s-35.899-23.578-54.141-11.919
			c-18.242,11.659-23.578,35.899-11.919,54.141c5.694,8.909,14.746,15.14,25.101,17.279v129.84c0,37.44,116,47.36,177.36,47.36
			c61.36,0,177.28-9.92,177.36-47.28v-130C404.22,191.544,417.263,175.465,417.276,156.838L417.276,156.838z M185.276,84.038
			c-0.044-12.901,10.379-23.396,23.28-23.44c12.901-0.044,23.396,10.379,23.44,23.28c0.044,12.901-10.379,23.396-23.28,23.44
			c-0.027,0-0.053,0-0.08,0C195.766,107.318,185.32,96.908,185.276,84.038z M15.996,156.838c0-12.901,10.459-23.36,23.36-23.36
			s23.36,10.459,23.36,23.36s-10.459,23.36-23.36,23.36S15.996,169.739,15.996,156.838z M208.636,356.678
			c-104,0-161.36-20.72-161.36-31.36c0-10.64,57.36-31.28,161.36-31.28s161.36,20.72,161.36,31.36S312.636,356.678,208.636,356.678z
			 M370.236,303.878c-33.92-20-113.92-25.92-161.36-25.92s-127.44,5.92-161.36,25.92v-102.24l72,32
			c3.239,1.267,6.925,0.297,9.12-2.4l80-102.56l80,102.56c2.262,2.92,6.23,3.912,9.6,2.4l72-32V303.878z M377.996,180.198
			c-12.901,0-23.36-10.459-23.36-23.36s10.459-23.36,23.36-23.36s23.36,10.459,23.36,23.36S390.897,180.198,377.996,180.198z"/>
	</g>
</g>
<g>
</g>
<g>
</g>
<g>
</g>
<g>
</g>
<g>
</g>
<g>
</g>
<g>
</g>
<g>
</g>
<g>
</g>
<g>
</g>
<g>
</g>
<g>
</g>
<g>
</g>
<g>
</g>
<g>
</g>
</svg>
