<?xml version="1.0" encoding="UTF-8"?>
<svg width="23px" height="20px" viewBox="0 0 23 20" version="1.1" xmlns="http://www.w3.org/2000/svg" xmlns:xlink="http://www.w3.org/1999/xlink">
    <!-- Generator: Sketch 43.2 (39069) - http://www.bohemiancoding.com/sketch -->
    <title>Shape</title>
    <desc>Created with Sketch.</desc>
    <defs></defs>
    <g id="Page-1" stroke="none" stroke-width="1" fill="none" fill-rule="evenodd">
        <g id="thumb_up" transform="translate(-1.000000, -1.000000)" fill-rule="nonzero" fill="#333333">
            <path d="M13.12,2.06 L7.58,7.6 C7.21,7.97 7,8.48 7,9.01 L7,19 C7,20.1 7.9,21 9,21 L18,21 C18.8,21 19.52,20.52 19.84,19.79 L23.1,12.18 C23.94,10.2 22.49,8 20.34,8 L14.69,8 L15.64,3.42 C15.74,2.92 15.59,2.41 15.23,2.05 C14.64,1.47 13.7,1.47 13.12,2.06 L13.12,2.06 Z M3,21 C4.1,21 5,20.1 5,19 L5,11 C5,9.9 4.1,9 3,9 C1.9,9 1,9.9 1,11 L1,19 C1,20.1 1.9,21 3,21 Z" id="Shape"></path>
        </g>
    </g>
</svg>