<?xml version="1.0" encoding="UTF-8"?>
<svg width="24px" height="24px" viewBox="0 0 24 24" version="1.1" xmlns="http://www.w3.org/2000/svg" xmlns:xlink="http://www.w3.org/1999/xlink">
    <!-- Generator: Sketch 43.2 (39069) - http://www.bohemiancoding.com/sketch -->
    <title>Untitled</title>
    <desc>Created with Sketch.</desc>
    <defs></defs>
    <g id="Page-1" stroke="none" stroke-width="1" fill="none" fill-rule="evenodd">
        <g id="thumb_down">
            <path d="M0,0 L24,0 L24,24 L0,24 L0,0 Z M0,0 L24,0 L24,24 L0,24 L0,0 Z" id="Shape"></path>
            <path d="M10.88,21.94 L16.41,16.4 C16.78,16.03 16.99,15.52 16.99,14.99 L16.99,5 C16.99,3.9 16.09,3 14.99,3 L6,3 C5.2,3 4.48,3.48 4.17,4.21 L0.91,11.82 C0.06,13.8 1.51,16 3.66,16 L9.31,16 L8.36,20.58 C8.26,21.08 8.41,21.59 8.77,21.95 C9.36,22.53 10.3,22.53 10.88,21.94 L10.88,21.94 Z M21,3 C19.9,3 19,3.9 19,5 L19,13 C19,14.1 19.9,15 21,15 C22.1,15 23,14.1 23,13 L23,5 C23,3.9 22.1,3 21,3 Z" id="Shape" fill="#333333" fill-rule="nonzero"></path>
        </g>
    </g>
</svg>